<svg width="694" height="196" viewBox="0 0 694 196" fill="none" xmlns="http://www.w3.org/2000/svg">
<path d="M95.1172 20.1353V81.2759H90.3301V20.1353H95.1172ZM126.737 20.1353L104.733 48.144L93.4375 61.2876L92.8916 55.4087L101.794 44.3228L120.774 20.1353H126.737ZM122.58 81.2759L101.458 49.9497L104.314 45.6665L128.375 81.2759H122.58ZM175.521 44.1128V57.3403C175.521 61.3996 175.059 64.9829 174.135 68.0903C173.239 71.1698 171.937 73.7453 170.23 75.8169C168.55 77.8885 166.492 79.4702 164.057 80.562C161.621 81.6258 158.878 82.1577 155.826 82.1577C152.803 82.1577 150.073 81.6258 147.638 80.562C145.23 79.4702 143.159 77.8885 141.423 75.8169C139.687 73.7453 138.343 71.1698 137.392 68.0903C136.468 64.9829 136.006 61.3996 136.006 57.3403V44.1128C136.006 40.0815 136.468 36.5122 137.392 33.4048C138.315 30.2974 139.631 27.7078 141.339 25.6362C143.075 23.5646 145.146 21.9969 147.554 20.9331C149.989 19.8413 152.719 19.2954 155.742 19.2954C158.794 19.2954 161.537 19.8413 163.973 20.9331C166.408 21.9969 168.494 23.5646 170.23 25.6362C171.965 27.7078 173.281 30.2974 174.177 33.4048C175.073 36.5122 175.521 40.0815 175.521 44.1128ZM170.775 57.3403V44.0288C170.775 40.6694 170.439 37.744 169.768 35.2524C169.124 32.7329 168.172 30.6333 166.912 28.9536C165.652 27.2739 164.085 26.0142 162.209 25.1743C160.333 24.3345 158.178 23.9146 155.742 23.9146C153.391 23.9146 151.277 24.3345 149.401 25.1743C147.554 26.0142 145.986 27.2739 144.698 28.9536C143.439 30.6333 142.473 32.7329 141.801 35.2524C141.129 37.744 140.793 40.6694 140.793 44.0288V57.3403C140.793 60.7277 141.129 63.6812 141.801 66.2007C142.473 68.6922 143.453 70.7918 144.74 72.4995C146.056 74.1792 147.638 75.439 149.485 76.2788C151.361 77.1187 153.475 77.5386 155.826 77.5386C158.262 77.5386 160.403 77.1187 162.251 76.2788C164.127 75.439 165.694 74.1792 166.954 72.4995C168.214 70.7918 169.166 68.6922 169.81 66.2007C170.453 63.6812 170.775 60.7277 170.775 57.3403ZM203.938 81.2759H192.474L192.516 76.7827H203.938C207.605 76.7827 210.726 76.0129 213.302 74.4731C215.877 72.9334 217.837 70.6799 219.181 67.7124C220.552 64.745 221.238 61.1336 221.238 56.8784V44.4487C221.238 41.2013 220.846 38.3459 220.063 35.8823C219.307 33.3908 218.187 31.3192 216.703 29.6675C215.247 27.9878 213.47 26.728 211.37 25.8882C209.271 25.0483 206.905 24.6284 204.273 24.6284H192.264V20.1353H204.273C207.521 20.1353 210.474 20.6672 213.134 21.731C215.793 22.7948 218.075 24.3625 219.979 26.4341C221.91 28.5057 223.394 31.0532 224.43 34.0767C225.466 37.1001 225.983 40.5854 225.983 44.5327V56.8784C225.983 60.7977 225.466 64.283 224.43 67.3345C223.394 70.3859 221.91 72.9474 219.979 75.019C218.047 77.0627 215.723 78.6164 213.008 79.6802C210.292 80.744 207.269 81.2759 203.938 81.2759ZM194.699 20.1353V81.2759H189.912V20.1353H194.699ZM278.492 23.8306L260.897 81.2759H255.942L275.385 20.1353H278.786L278.492 23.8306ZM294.323 81.2759L276.687 23.8306L276.477 20.1353H279.836L299.278 81.2759H294.323ZM291.552 59.6919V64.1851H264.005V59.6919H291.552ZM341.259 62.2114H346.088C345.808 66.7746 344.884 70.5259 343.316 73.4653C341.749 76.4048 339.593 78.5884 336.85 80.0161C334.134 81.4438 330.873 82.1577 327.065 82.1577C324.126 82.1577 321.48 81.5838 319.129 80.436C316.777 79.2882 314.762 77.6366 313.082 75.481C311.43 73.2974 310.157 70.6519 309.261 67.5444C308.393 64.437 307.959 60.9377 307.959 57.0464V43.9448C307.959 40.1095 308.393 36.6802 309.261 33.6567C310.157 30.6053 311.444 28.0158 313.124 25.8882C314.832 23.7326 316.889 22.0949 319.297 20.9751C321.704 19.8553 324.406 19.2954 327.401 19.2954C331.097 19.2954 334.288 19.9953 336.976 21.395C339.691 22.7948 341.819 24.9644 343.358 27.9038C344.898 30.8433 345.808 34.6366 346.088 39.2837H341.259C341.007 35.5324 340.335 32.5229 339.243 30.2554C338.179 27.9878 336.668 26.3501 334.708 25.3423C332.748 24.3065 330.313 23.7886 327.401 23.7886C325.05 23.7886 322.964 24.2505 321.145 25.1743C319.353 26.0701 317.827 27.3859 316.567 29.1216C315.336 30.8293 314.398 32.9289 313.754 35.4204C313.11 37.884 312.788 40.6974 312.788 43.8608V57.0464C312.788 60.1538 313.082 62.9813 313.67 65.5288C314.286 68.0483 315.182 70.2179 316.357 72.0376C317.561 73.8573 319.045 75.257 320.809 76.2368C322.6 77.1886 324.686 77.6646 327.065 77.6646C330.089 77.6646 332.58 77.1886 334.54 76.2368C336.528 75.285 338.067 73.6893 339.159 71.4497C340.279 69.1821 340.979 66.1027 341.259 62.2114ZM365.267 20.1353V81.2759H360.438V20.1353H365.267ZM386.881 20.1353V81.2759H382.094V20.1353H386.881ZM418.501 20.1353L396.497 48.144L385.201 61.2876L384.655 55.4087L393.558 44.3228L412.538 20.1353H418.501ZM414.344 81.2759L393.222 49.9497L396.077 45.6665L420.139 81.2759H414.344ZM448.304 20.1353V81.2759H443.559V20.1353H448.304ZM465.73 20.1353V24.6284H426.216V20.1353H465.73ZM482.81 20.1353V81.2759H477.98V20.1353H482.81ZM499.553 20.1353H516.308C519.891 20.1353 522.984 20.8351 525.588 22.2349C528.219 23.6066 530.249 25.6362 531.677 28.3237C533.105 30.9832 533.818 34.2586 533.818 38.1499C533.818 41.0334 533.3 43.6509 532.265 46.0024C531.257 48.354 529.871 50.3136 528.107 51.8813C526.344 53.4491 524.258 54.5269 521.851 55.1147L520.297 55.8286H502.828L502.744 51.3354H517.105C519.765 51.3354 521.977 50.7196 523.74 49.4878C525.504 48.256 526.82 46.6323 527.688 44.6167C528.583 42.6011 529.031 40.4455 529.031 38.1499C529.031 35.3784 528.541 32.9849 527.562 30.9692C526.61 28.9256 525.182 27.3579 523.278 26.2661C521.403 25.1743 519.079 24.6284 516.308 24.6284H504.34V81.2759H499.553V20.1353ZM530.921 81.2759L517.777 53.939L522.9 53.897L536.002 80.73V81.2759H530.921ZM554.089 20.1353V81.2759H549.26V20.1353H554.089ZM570.832 20.1353H587.587C591.17 20.1353 594.264 20.8351 596.867 22.2349C599.499 23.6066 601.528 25.6362 602.956 28.3237C604.384 30.9832 605.098 34.2586 605.098 38.1499C605.098 41.0334 604.58 43.6509 603.544 46.0024C602.536 48.354 601.15 50.3136 599.387 51.8813C597.623 53.4491 595.537 54.5269 593.13 55.1147L591.576 55.8286H574.107L574.023 51.3354H588.385C591.044 51.3354 593.256 50.7196 595.02 49.4878C596.783 48.256 598.099 46.6323 598.967 44.6167C599.863 42.6011 600.311 40.4455 600.311 38.1499C600.311 35.3784 599.821 32.9849 598.841 30.9692C597.889 28.9256 596.461 27.3579 594.558 26.2661C592.682 25.1743 590.358 24.6284 587.587 24.6284H575.619V81.2759H570.832V20.1353ZM602.2 81.2759L589.057 53.939L594.18 53.897L607.281 80.73V81.2759H602.2ZM76.0586 148.417H61.5713V143.923H76.0586C79.0541 143.923 81.4756 143.335 83.3233 142.16C85.1709 140.956 86.5147 139.346 87.3545 137.331C88.2224 135.287 88.6563 133.005 88.6563 130.486C88.6563 127.994 88.2224 125.699 87.3545 123.599C86.5147 121.5 85.1709 119.82 83.3233 118.56C81.4756 117.272 79.0541 116.628 76.0586 116.628H63.083V173.276H58.2959V112.135H76.0586C79.8099 112.135 82.9733 112.905 85.5489 114.445C88.1524 115.985 90.112 118.126 91.4278 120.87C92.7715 123.613 93.4434 126.791 93.4434 130.402C93.4434 134.153 92.7855 137.387 91.4698 140.102C90.154 142.79 88.2084 144.847 85.6328 146.275C83.0573 147.703 79.8659 148.417 76.0586 148.417ZM111.824 112.135V173.276H106.995V112.135H111.824ZM105.987 101.805C105.987 100.825 106.295 100.014 106.911 99.3696C107.527 98.6978 108.367 98.3618 109.431 98.3618C110.494 98.3618 111.334 98.6978 111.95 99.3696C112.594 100.014 112.916 100.825 112.916 101.805C112.916 102.757 112.594 103.555 111.95 104.199C111.334 104.843 110.494 105.165 109.431 105.165C108.367 105.165 107.527 104.843 106.911 104.199C106.295 103.555 105.987 102.757 105.987 101.805ZM162.413 168.783V173.276H127.182V168.783H162.413ZM161.279 115.915L128.399 173.276H125.376V169.287L158.214 112.135H161.279V115.915ZM159.222 112.135V116.628H126.216V112.135H159.222ZM208.845 168.783V173.276H173.613V168.783H208.845ZM207.711 115.915L174.831 173.276H171.808V169.287L204.646 112.135H207.711V115.915ZM205.653 112.135V116.628H172.647V112.135H205.653ZM239.319 115.831L221.725 173.276H216.77L236.212 112.135H239.613L239.319 115.831ZM255.15 173.276L237.514 115.831L237.304 112.135H240.663L260.105 173.276H255.15ZM252.379 151.692V156.185H224.832V151.692H252.379ZM274.959 165.297V171.176C274.959 173.752 274.427 176.243 273.363 178.651C272.328 181.058 270.9 183.088 269.08 184.74L266.099 182.556C266.967 181.38 267.68 180.205 268.24 179.029C268.828 177.881 269.262 176.677 269.542 175.417C269.85 174.158 270.004 172.786 270.004 171.302V165.297H274.959ZM323.689 173.276H312.225L312.267 168.783H323.689C327.356 168.783 330.477 168.013 333.053 166.473C335.628 164.933 337.588 162.68 338.932 159.712C340.303 156.745 340.989 153.134 340.989 148.878V136.449C340.989 133.201 340.597 130.346 339.814 127.882C339.058 125.391 337.938 123.319 336.454 121.667C334.998 119.988 333.221 118.728 331.121 117.888C329.022 117.048 326.656 116.628 324.024 116.628H312.015V112.135H324.024C327.272 112.135 330.225 112.667 332.885 113.731C335.544 114.795 337.826 116.362 339.73 118.434C341.661 120.506 343.145 123.053 344.181 126.077C345.217 129.1 345.734 132.585 345.734 136.533V148.878C345.734 152.798 345.217 156.283 344.181 159.334C343.145 162.386 341.661 164.947 339.73 167.019C337.798 169.063 335.474 170.616 332.759 171.68C330.043 172.744 327.02 173.276 323.689 173.276ZM314.45 112.135V173.276H309.663V112.135H314.45ZM398.045 136.113V149.34C398.045 153.4 397.583 156.983 396.659 160.09C395.763 163.17 394.462 165.745 392.754 167.817C391.074 169.889 389.017 171.47 386.581 172.562C384.146 173.626 381.402 174.158 378.351 174.158C375.327 174.158 372.598 173.626 370.162 172.562C367.755 171.47 365.683 169.889 363.947 167.817C362.212 165.745 360.868 163.17 359.916 160.09C358.992 156.983 358.53 153.4 358.53 149.34V136.113C358.53 132.082 358.992 128.512 359.916 125.405C360.84 122.297 362.156 119.708 363.863 117.636C365.599 115.565 367.671 113.997 370.078 112.933C372.514 111.841 375.243 111.295 378.267 111.295C381.318 111.295 384.062 111.841 386.497 112.933C388.933 113.997 391.018 115.565 392.754 117.636C394.49 119.708 395.805 122.297 396.701 125.405C397.597 128.512 398.045 132.082 398.045 136.113ZM393.3 149.34V136.029C393.3 132.669 392.964 129.744 392.292 127.252C391.648 124.733 390.696 122.633 389.437 120.954C388.177 119.274 386.609 118.014 384.733 117.174C382.858 116.334 380.702 115.915 378.267 115.915C375.915 115.915 373.801 116.334 371.926 117.174C370.078 118.014 368.51 119.274 367.223 120.954C365.963 122.633 364.997 124.733 364.325 127.252C363.653 129.744 363.317 132.669 363.317 136.029V149.34C363.317 152.728 363.653 155.681 364.325 158.201C364.997 160.692 365.977 162.792 367.265 164.5C368.58 166.179 370.162 167.439 372.01 168.279C373.885 169.119 375.999 169.539 378.351 169.539C380.786 169.539 382.928 169.119 384.775 168.279C386.651 167.439 388.219 166.179 389.479 164.5C390.738 162.792 391.69 160.692 392.334 158.201C392.978 155.681 393.3 152.728 393.3 149.34ZM410.589 112.135L425.748 145.351L440.991 112.135H446.534L428.142 150.264V173.276H423.355V150.264L404.962 112.135H410.589ZM483.77 112.135H488.557V155.219C488.557 159.81 487.731 163.492 486.079 166.263C484.455 169.035 482.258 171.05 479.486 172.31C476.743 173.542 473.705 174.158 470.374 174.158C466.959 174.158 463.879 173.542 461.136 172.31C458.392 171.05 456.223 169.035 454.627 166.263C453.031 163.492 452.233 159.81 452.233 155.219V112.135H457.021V155.219C457.021 158.803 457.594 161.644 458.742 163.744C459.89 165.843 461.472 167.355 463.487 168.279C465.503 169.203 467.799 169.665 470.374 169.665C473.006 169.665 475.315 169.203 477.303 168.279C479.318 167.355 480.9 165.843 482.048 163.744C483.196 161.644 483.77 158.803 483.77 155.219V112.135ZM503.536 112.135H520.291C523.874 112.135 526.968 112.835 529.571 114.235C532.203 115.607 534.232 117.636 535.66 120.324C537.088 122.983 537.802 126.259 537.802 130.15C537.802 133.033 537.284 135.651 536.248 138.002C535.24 140.354 533.855 142.314 532.091 143.881C530.327 145.449 528.242 146.527 525.834 147.115L524.28 147.829H506.812L506.728 143.335H521.089C523.748 143.335 525.96 142.72 527.724 141.488C529.487 140.256 530.803 138.632 531.671 136.617C532.567 134.601 533.015 132.445 533.015 130.15C533.015 127.378 532.525 124.985 531.545 122.969C530.593 120.926 529.165 119.358 527.262 118.266C525.386 117.174 523.063 116.628 520.291 116.628H508.323V173.276H503.536V112.135ZM534.904 173.276L521.761 145.939L526.884 145.897L539.985 172.73V173.276H534.904ZM583.1 112.135H587.887V155.219C587.887 159.81 587.061 163.492 585.409 166.263C583.785 169.035 581.588 171.05 578.816 172.31C576.073 173.542 573.035 174.158 569.704 174.158C566.289 174.158 563.209 173.542 560.466 172.31C557.722 171.05 555.553 169.035 553.957 166.263C552.361 163.492 551.563 159.81 551.563 155.219V112.135H556.351V155.219C556.351 158.803 556.924 161.644 558.072 163.744C559.22 165.843 560.802 167.355 562.817 168.279C564.833 169.203 567.129 169.665 569.704 169.665C572.336 169.665 574.645 169.203 576.633 168.279C578.648 167.355 580.23 165.843 581.378 163.744C582.526 161.644 583.1 158.803 583.1 155.219V112.135ZM602.866 112.135H619.621C623.204 112.135 626.298 112.835 628.901 114.235C631.533 115.607 633.562 117.636 634.99 120.324C636.418 122.983 637.132 126.259 637.132 130.15C637.132 133.033 636.614 135.651 635.578 138.002C634.57 140.354 633.185 142.314 631.421 143.881C629.657 145.449 627.572 146.527 625.164 147.115L623.61 147.829H606.142L606.058 143.335H620.419C623.078 143.335 625.29 142.72 627.054 141.488C628.817 140.256 630.133 138.632 631.001 136.617C631.897 134.601 632.345 132.445 632.345 130.15C632.345 127.378 631.855 124.985 630.875 122.969C629.923 120.926 628.495 119.358 626.592 118.266C624.716 117.174 622.393 116.628 619.621 116.628H607.653V173.276H602.866V112.135ZM634.234 173.276L621.091 145.939L626.214 145.897L639.315 172.73V173.276H634.234Z" fill="white"/>
</svg>
